<?xml version="1.0" encoding="UTF-8"?>
<svg xmlns="http://www.w3.org/2000/svg" xmlns:xlink="http://www.w3.org/1999/xlink" width="400" height="330.650955" viewBox="0 0 400 330.650955">
<path fill="none" stroke-width="0.19925" stroke-linecap="butt" stroke-linejoin="miter" stroke="rgb(50.196078%, 50.196078%, 50.196078%)" stroke-opacity="1" stroke-miterlimit="10" d="M 23.129616 -2.12513 L 23.129616 2.123582 M 46.259126 -2.12513 L 46.259126 2.123582 M 69.382821 -2.12513 L 69.382821 2.123582 M 92.51233 -2.12513 L 92.51233 2.123582 M 115.64184 -2.12513 L 115.64184 2.123582 M 138.769411 -2.12513 L 138.769411 2.123582 " transform="matrix(2.015316, 0, 0, -2.015316, 33.031035, 298.557034)"/>
<path fill="none" stroke-width="0.3985" stroke-linecap="butt" stroke-linejoin="miter" stroke="rgb(50.196078%, 50.196078%, 50.196078%)" stroke-opacity="1" stroke-miterlimit="10" d="M -16.190356 -0.000773837 L 176.094893 -0.000773837 " transform="matrix(2.015316, 0, 0, -2.015316, 33.031035, 298.557034)"/>
<path fill-rule="nonzero" fill="rgb(50.196078%, 50.196078%, 50.196078%)" fill-opacity="1" d="M 391.941406 298.558594 L 385.507812 295.347656 L 387.917969 298.558594 L 385.507812 301.769531 "/>
<path fill="none" stroke-width="0.3985" stroke-linecap="butt" stroke-linejoin="miter" stroke="rgb(50.196078%, 50.196078%, 50.196078%)" stroke-opacity="1" stroke-miterlimit="10" d="M 0.000106508 -13.450507 L 0.000106508 145.951801 " transform="matrix(2.015316, 0, 0, -2.015316, 33.031035, 298.557034)"/>
<path fill-rule="nonzero" fill="rgb(50.196078%, 50.196078%, 50.196078%)" fill-opacity="1" d="M 33.03125 0.402344 L 29.820312 6.824219 L 33.03125 4.417969 L 36.246094 6.824219 "/>
<path fill-rule="nonzero" fill="rgb(50.196078%, 50.196078%, 50.196078%)" fill-opacity="1" d="M 80.476562 309.796875 L 76.855469 311.621094 L 76.855469 311.90625 C 77.078125 311.8125 77.296875 311.714844 77.390625 311.683594 C 77.769531 311.527344 78.085938 311.464844 78.304688 311.464844 C 78.714844 311.464844 78.902344 311.746094 78.902344 312.410156 L 78.902344 321.507812 C 78.902344 322.171875 78.746094 322.613281 78.429688 322.800781 C 78.117188 322.988281 77.832031 323.050781 76.984375 323.050781 L 76.984375 323.367188 L 82.523438 323.367188 L 82.523438 323.050781 C 80.949219 323.050781 80.636719 322.832031 80.636719 321.886719 L 80.636719 309.828125 Z M 80.476562 309.796875 "/>
<path fill-rule="nonzero" fill="rgb(50.196078%, 50.196078%, 50.196078%)" fill-opacity="1" d="M 130.773438 320.628906 L 130.519531 320.503906 C 129.765625 321.667969 129.511719 321.855469 128.601562 321.855469 L 123.8125 321.855469 L 127.183594 318.296875 C 128.976562 316.441406 129.765625 314.898438 129.765625 313.355469 C 129.765625 311.339844 128.128906 309.796875 126.019531 309.796875 C 124.914062 309.796875 123.875 310.238281 123.152344 311.023438 C 122.492188 311.714844 122.207031 312.347656 121.859375 313.792969 L 122.269531 313.890625 C 123.089844 311.90625 123.8125 311.277344 125.199219 311.277344 C 126.867188 311.277344 128.03125 312.410156 128.03125 314.109375 C 128.03125 315.683594 127.089844 317.542969 125.417969 319.335938 L 121.828125 323.117188 L 121.828125 323.367188 L 129.671875 323.367188 Z M 130.773438 320.628906 "/>
<path fill-rule="nonzero" fill="rgb(50.196078%, 50.196078%, 50.196078%)" fill-opacity="1" d="M 170.925781 316.722656 C 172.09375 316.722656 172.566406 316.785156 173.039062 316.945312 C 174.296875 317.417969 175.085938 318.550781 175.085938 319.933594 C 175.085938 321.605469 173.917969 322.925781 172.4375 322.925781 C 171.902344 322.925781 171.496094 322.769531 170.769531 322.296875 C 170.140625 321.949219 169.824219 321.792969 169.480469 321.792969 C 169.007812 321.792969 168.691406 322.078125 168.691406 322.515625 C 168.691406 323.210938 169.574219 323.652344 170.992188 323.652344 C 172.535156 323.652344 174.109375 323.117188 175.050781 322.296875 C 175.996094 321.476562 176.53125 320.3125 176.53125 318.960938 C 176.53125 317.953125 176.1875 317.007812 175.621094 316.378906 C 175.210938 315.9375 174.832031 315.683594 173.949219 315.304688 C 175.335938 314.363281 175.839844 313.636719 175.839844 312.535156 C 175.839844 310.898438 174.546875 309.796875 172.691406 309.796875 C 171.683594 309.796875 170.800781 310.140625 170.078125 310.773438 C 169.480469 311.308594 169.195312 311.84375 168.753906 313.039062 L 169.039062 313.132812 C 169.855469 311.652344 170.769531 310.992188 172.03125 310.992188 C 173.351562 310.992188 174.265625 311.875 174.265625 313.132812 C 174.265625 313.859375 173.949219 314.582031 173.445312 315.085938 C 172.847656 315.683594 172.28125 316 170.925781 316.472656 Z M 170.925781 316.722656 "/>
<path fill-rule="nonzero" fill="rgb(50.196078%, 50.196078%, 50.196078%)" fill-opacity="1" d="M 223.929688 318.738281 L 221.882812 318.738281 L 221.882812 309.796875 L 221 309.796875 L 214.703125 318.738281 L 214.703125 320 L 220.339844 320 L 220.339844 323.367188 L 221.882812 323.367188 L 221.882812 320 L 223.929688 320 Z M 220.308594 318.738281 L 215.492188 318.738281 L 220.308594 311.84375 Z M 220.308594 318.738281 "/>
<path fill-rule="nonzero" fill="rgb(50.196078%, 50.196078%, 50.196078%)" fill-opacity="1" d="M 264.683594 311.933594 L 268.652344 311.933594 C 268.964844 311.933594 269.027344 311.902344 269.09375 311.746094 L 269.847656 309.980469 L 269.691406 309.824219 C 269.375 310.234375 269.1875 310.359375 268.746094 310.359375 L 264.558594 310.359375 L 262.351562 315.113281 C 262.351562 315.144531 262.351562 315.175781 262.351562 315.207031 C 262.351562 315.304688 262.417969 315.367188 262.574219 315.367188 C 263.234375 315.367188 264.023438 315.523438 264.871094 315.773438 C 267.171875 316.53125 268.242188 317.757812 268.242188 319.742188 C 268.242188 321.664062 267.011719 323.175781 265.4375 323.175781 C 265.03125 323.175781 264.683594 323.050781 264.085938 322.609375 C 263.457031 322.136719 262.984375 321.949219 262.574219 321.949219 C 261.976562 321.949219 261.691406 322.167969 261.691406 322.671875 C 261.691406 323.457031 262.636719 323.929688 264.148438 323.929688 C 265.847656 323.929688 267.296875 323.394531 268.304688 322.355469 C 269.21875 321.445312 269.628906 320.308594 269.628906 318.796875 C 269.628906 317.351562 269.25 316.40625 268.242188 315.398438 C 267.359375 314.515625 266.226562 314.074219 263.863281 313.632812 Z M 264.683594 311.933594 "/>
<path fill-rule="nonzero" fill="rgb(50.196078%, 50.196078%, 50.196078%)" fill-opacity="1" d="M 316.648438 309.917969 C 314.347656 310.105469 313.183594 310.484375 311.703125 311.523438 C 309.53125 313.066406 308.363281 315.367188 308.363281 318.042969 C 308.363281 319.804688 308.902344 321.570312 309.75 322.578125 C 310.539062 323.457031 311.609375 323.929688 312.867188 323.929688 C 315.355469 323.929688 317.085938 322.011719 317.085938 319.238281 C 317.085938 316.6875 315.609375 315.050781 313.308594 315.050781 C 312.425781 315.050781 311.988281 315.175781 310.726562 315.964844 C 311.261719 312.910156 313.53125 310.738281 316.679688 310.234375 Z M 312.523438 315.964844 C 314.253906 315.964844 315.261719 317.414062 315.261719 319.933594 C 315.261719 322.136719 314.472656 323.363281 313.089844 323.363281 C 311.292969 323.363281 310.222656 321.476562 310.222656 318.359375 C 310.222656 317.351562 310.378906 316.78125 310.789062 316.46875 C 311.199219 316.152344 311.828125 315.964844 312.523438 315.964844 Z M 312.523438 315.964844 "/>
<path fill="none" stroke-width="0.79701" stroke-linecap="butt" stroke-linejoin="miter" stroke="rgb(6.666667%, 52.941176%, 87.058824%)" stroke-opacity="1" stroke-miterlimit="10" d="M 23.129616 112.082275 L 24.530993 105.674318 L 25.930433 99.960265 L 27.33181 94.835449 L 28.735125 90.21071 L 30.136503 86.014331 L 31.539818 82.190103 L 32.941196 78.695381 L 34.340635 75.48365 L 35.742012 72.521956 L 37.145328 69.785103 L 38.546705 67.249831 L 39.95002 64.890943 L 41.347521 62.690994 L 42.750837 60.632539 L 44.152214 58.705887 L 45.55553 56.901348 L 46.956907 55.203413 L 48.360223 53.604331 L 49.757723 52.092472 L 51.161039 50.667835 L 52.562416 49.314915 L 53.965732 48.033711 L 55.367109 46.820347 L 56.770425 45.663193 L 58.167926 44.562249 L 59.571241 43.515578 L 60.972618 42.511548 L 62.375934 41.557914 L 63.777311 40.643045 L 65.180627 39.76888 L 66.578128 38.933481 L 67.981443 38.132971 L 69.382821 37.359596 L 70.786136 36.621111 L 72.187514 35.909762 L 73.590829 35.225549 L 74.98833 34.566533 L 76.391645 33.932715 L 77.793023 33.320218 L 79.196338 32.729043 L 80.597716 32.163065 L 82.001031 31.612593 L 83.398532 31.081504 L 84.801848 30.569797 L 86.203225 30.069721 L 87.606541 29.589027 L 89.007918 29.12384 L 90.411233 28.67222 L 91.808734 28.234169 L 93.21205 27.807747 L 94.613427 27.398769 L 96.016743 26.999483 L 97.41812 26.607951 L 98.821436 26.229986 L 100.218936 25.863651 L 101.622252 25.507007 L 103.023629 25.160055 L 104.426945 24.822794 L 105.828322 24.495224 L 107.231638 24.175408 L 108.629139 23.863344 L 110.032454 23.557096 L 111.433831 23.260539 L 112.837147 22.971735 L 114.238524 22.690684 L 115.64184 22.417387 L 117.039341 22.147966 L 118.442656 21.886298 L 119.844034 21.628506 L 121.247349 21.378468 L 122.648727 21.136183 L 124.052042 20.897774 L 125.449543 20.663242 L 128.254236 20.209684 L 129.657551 19.992597 L 131.058929 19.777448 L 132.462244 19.570052 L 133.859745 19.366532 L 135.263061 19.163012 L 138.067754 18.773418 L 139.469131 18.585405 L 140.872446 18.401268 L 142.269947 18.222946 L 143.673263 18.042686 L 145.07464 17.866302 L 147.879333 17.53098 L 149.282649 17.366226 L 150.680149 17.20341 L 152.083465 17.046409 L 153.484842 16.885532 L 154.888158 16.734346 L 157.692851 16.437789 L 159.090352 16.292418 L 161.895044 16.011367 " transform="matrix(2.015316, 0, 0, -2.015316, 33.031035, 298.557034)"/>
<path fill-rule="nonzero" fill="rgb(6.666667%, 52.941176%, 87.058824%)" fill-opacity="1" d="M 324.105469 240.84375 C 324.359375 240.78125 324.484375 240.75 324.703125 240.75 C 325.867188 240.75 326.152344 241.253906 327.097656 244.71875 C 327.410156 246.011719 327.914062 248.371094 327.914062 248.71875 C 327.914062 249.03125 327.789062 249.347656 327.476562 249.726562 C 326.875 250.542969 326.46875 251.078125 326.246094 251.300781 C 325.804688 251.742188 325.585938 251.898438 325.300781 251.898438 C 325.207031 251.898438 325.050781 251.835938 324.828125 251.679688 C 324.546875 251.457031 324.324219 251.332031 324.105469 251.332031 C 323.664062 251.332031 323.320312 251.679688 323.320312 252.117188 C 323.320312 252.621094 323.757812 253 324.324219 253 C 325.617188 253 328.261719 250.007812 330.433594 246.011719 C 331.789062 243.554688 332.355469 242.105469 332.355469 241.128906 C 332.355469 240.53125 331.851562 240.027344 331.253906 240.027344 C 330.78125 240.027344 330.464844 240.308594 330.464844 240.75 C 330.464844 241.066406 330.625 241.285156 331.035156 241.539062 C 331.410156 241.757812 331.539062 241.949219 331.539062 242.230469 C 331.539062 243.019531 330.8125 244.59375 329.082031 247.425781 L 328.703125 245.097656 C 328.386719 243.332031 327.253906 240.027344 326.972656 240.027344 L 326.875 240.027344 C 326.875 240.027344 326.78125 240.027344 326.71875 240.027344 C 326.53125 240.058594 325.804688 240.183594 324.734375 240.375 C 324.640625 240.40625 324.390625 240.46875 324.105469 240.5 Z M 324.105469 240.84375 "/>
<path fill-rule="nonzero" fill="rgb(6.666667%, 52.941176%, 87.058824%)" fill-opacity="1" d="M 350.957031 242.292969 C 351.273438 242.292969 351.652344 242.292969 351.652344 241.917969 C 351.652344 241.507812 351.273438 241.507812 350.992188 241.507812 L 338.960938 241.507812 C 338.679688 241.507812 338.300781 241.507812 338.300781 241.917969 C 338.300781 242.292969 338.679688 242.292969 338.960938 242.292969 Z M 350.992188 246.199219 C 351.273438 246.199219 351.652344 246.199219 351.652344 245.789062 C 351.652344 245.410156 351.273438 245.410156 350.957031 245.410156 L 338.960938 245.410156 C 338.679688 245.410156 338.300781 245.410156 338.300781 245.789062 C 338.300781 246.199219 338.679688 246.199219 338.960938 246.199219 Z M 350.992188 246.199219 "/>
<path fill-rule="nonzero" fill="rgb(6.666667%, 52.941176%, 87.058824%)" fill-opacity="1" d="M 360.933594 240.910156 L 362.757812 240.910156 L 360.996094 249.347656 C 360.554688 251.519531 359.894531 252.621094 359.042969 252.621094 C 358.792969 252.621094 358.632812 252.464844 358.632812 252.277344 C 358.632812 252.246094 358.664062 252.183594 358.726562 252.054688 C 358.792969 251.960938 358.824219 251.867188 358.824219 251.742188 C 358.824219 251.332031 358.445312 250.984375 358.035156 250.984375 C 357.59375 250.984375 357.28125 251.332031 357.28125 251.804688 C 357.28125 252.496094 358.003906 253.03125 358.886719 253.03125 C 360.648438 253.03125 362.066406 251.046875 362.886719 247.363281 L 364.332031 240.910156 L 366.539062 240.910156 L 366.664062 240.277344 L 364.492188 240.277344 C 365.058594 237.128906 365.8125 235.679688 366.914062 235.679688 C 367.199219 235.679688 367.355469 235.808594 367.355469 235.933594 C 367.355469 235.996094 367.355469 236.027344 367.292969 236.152344 C 367.199219 236.3125 367.167969 236.40625 367.167969 236.5625 C 367.167969 237.035156 367.480469 237.351562 367.921875 237.351562 C 368.363281 237.351562 368.773438 237.003906 368.773438 236.5625 C 368.773438 235.808594 368.019531 235.242188 367.042969 235.242188 C 366.035156 235.242188 365.277344 235.679688 364.554688 236.625 C 363.925781 237.414062 363.546875 238.359375 362.917969 240.277344 L 361.089844 240.277344 Z M 360.933594 240.910156 "/>
<path fill-rule="nonzero" fill="rgb(6.666667%, 52.941176%, 87.058824%)" fill-opacity="1" d="M 375.398438 253.691406 C 375.398438 253.628906 375.398438 253.597656 375.050781 253.253906 C 372.5625 250.734375 371.902344 246.921875 371.902344 243.835938 C 371.902344 240.34375 372.65625 236.847656 375.144531 234.359375 C 375.398438 234.105469 375.398438 234.074219 375.398438 234.011719 C 375.398438 233.855469 375.332031 233.792969 375.207031 233.792969 C 374.988281 233.792969 373.191406 235.175781 371.996094 237.726562 C 370.988281 239.933594 370.738281 242.167969 370.738281 243.835938 C 370.738281 245.410156 370.957031 247.835938 372.058594 250.136719 C 373.285156 252.589844 374.988281 253.914062 375.207031 253.914062 C 375.332031 253.914062 375.398438 253.851562 375.398438 253.691406 Z M 375.398438 253.691406 "/>
<path fill-rule="nonzero" fill="rgb(6.666667%, 52.941176%, 87.058824%)" fill-opacity="1" d="M 384.605469 246.640625 C 384.449219 246.828125 384.351562 246.953125 384.164062 247.175781 C 383.722656 247.804688 383.472656 247.992188 383.25 247.992188 C 382.96875 247.992188 382.777344 247.742188 382.621094 247.175781 C 382.589844 247.019531 382.558594 246.890625 382.558594 246.828125 C 382.054688 244.78125 381.832031 243.867188 381.832031 243.585938 C 382.714844 242.011719 383.441406 241.128906 383.785156 241.128906 C 383.914062 241.128906 384.070312 241.191406 384.289062 241.285156 C 384.511719 241.445312 384.667969 241.476562 384.824219 241.476562 C 385.234375 241.476562 385.519531 241.191406 385.519531 240.75 C 385.519531 240.34375 385.171875 240.027344 384.699219 240.027344 C 383.816406 240.027344 383.0625 240.75 381.675781 242.890625 L 381.457031 241.789062 C 381.171875 240.40625 380.953125 240.027344 380.386719 240.027344 C 379.945312 240.027344 379.285156 240.183594 378.054688 240.59375 L 377.835938 240.6875 L 377.898438 240.972656 C 378.683594 240.8125 378.84375 240.75 379.03125 240.75 C 379.535156 240.75 379.660156 240.941406 379.945312 242.136719 L 380.511719 244.625 L 378.875 246.953125 C 378.464844 247.585938 378.054688 247.929688 377.835938 247.929688 C 377.742188 247.929688 377.519531 247.867188 377.332031 247.742188 C 377.078125 247.617188 376.859375 247.554688 376.667969 247.554688 C 376.292969 247.554688 376.007812 247.835938 376.007812 248.246094 C 376.007812 248.78125 376.417969 249.097656 377.015625 249.097656 C 377.613281 249.097656 377.867188 248.90625 378.875 247.679688 C 379.410156 247.050781 379.851562 246.515625 380.667969 245.347656 L 381.296875 247.742188 C 381.550781 248.78125 381.800781 249.097656 382.464844 249.097656 C 383.21875 249.097656 383.722656 248.625 384.886719 246.796875 Z M 384.605469 246.640625 "/>
<path fill-rule="nonzero" fill="rgb(6.666667%, 52.941176%, 87.058824%)" fill-opacity="1" d="M 391.3125 243.835938 C 391.3125 242.292969 391.089844 239.871094 389.988281 237.570312 C 388.792969 235.113281 387.0625 233.792969 386.871094 233.792969 C 386.746094 233.792969 386.652344 233.886719 386.652344 234.011719 C 386.652344 234.074219 386.652344 234.105469 387.03125 234.484375 C 389.011719 236.46875 390.148438 239.648438 390.148438 243.835938 C 390.148438 247.300781 389.421875 250.828125 386.933594 253.347656 C 386.652344 253.597656 386.652344 253.628906 386.652344 253.691406 C 386.652344 253.820312 386.746094 253.914062 386.871094 253.914062 C 387.0625 253.914062 388.886719 252.527344 390.050781 249.976562 C 391.089844 247.773438 391.3125 245.539062 391.3125 243.835938 Z M 391.3125 243.835938 "/>
<path fill-rule="nonzero" fill="rgb(6.666667%, 52.941176%, 87.058824%)" fill-opacity="0.5" stroke-width="0.3985" stroke-linecap="butt" stroke-linejoin="miter" stroke="rgb(50.196078%, 50.196078%, 50.196078%)" stroke-opacity="0.5" stroke-miterlimit="10" d="M 23.129616 -0.000773837 L 46.259126 -0.000773837 L 46.259126 56.038812 L 23.129616 56.038812 Z M 46.259126 -0.000773837 L 69.382821 -0.000773837 L 69.382821 37.359596 L 46.259126 37.359596 Z M 69.382821 -0.000773837 L 92.51233 -0.000773837 L 92.51233 28.019019 L 69.382821 28.019019 Z M 92.51233 -0.000773837 L 115.64184 -0.000773837 L 115.64184 22.417387 L 92.51233 22.417387 Z M 115.64184 -0.000773837 L 138.769411 -0.000773837 L 138.769411 18.678442 L 115.64184 18.678442 Z M 138.769411 -0.000773837 L 138.769411 16.011367 Z M 138.769411 -0.000773837 " transform="matrix(2.015316, 0, 0, -2.015316, 33.031035, 298.557034)"/>
<path fill-rule="nonzero" fill="rgb(50.196078%, 50.196078%, 50.196078%)" fill-opacity="1" d="M 103.03125 276.609375 C 102.714844 276.894531 102.621094 277.019531 102.464844 277.175781 C 101.867188 277.777344 101.613281 277.996094 101.425781 277.996094 C 101.269531 277.996094 101.140625 277.871094 101.140625 277.746094 C 101.140625 277.335938 101.992188 273.902344 102.9375 270.4375 C 103 270.25 103 270.1875 103.0625 270.03125 L 102.90625 269.964844 L 101.675781 270.09375 L 101.613281 270.15625 L 101.394531 271.132812 C 101.234375 270.375 100.667969 269.964844 99.789062 269.964844 C 97.140625 269.964844 94.054688 273.621094 94.054688 276.800781 C 94.054688 278.214844 94.8125 279.035156 96.101562 279.035156 C 97.519531 279.035156 98.371094 278.375 100.132812 275.886719 C 99.726562 277.460938 99.660156 277.710938 99.660156 278.183594 C 99.660156 278.785156 99.914062 279.003906 100.480469 279.003906 C 101.300781 279.003906 101.769531 278.625 103.28125 276.800781 Z M 99.914062 270.40625 C 100.605469 270.4375 101.046875 270.910156 101.046875 271.636719 C 101.046875 273.304688 100.039062 275.667969 98.652344 277.175781 C 98.183594 277.710938 97.488281 278.058594 96.890625 278.058594 C 96.199219 278.058594 95.726562 277.460938 95.726562 276.546875 C 95.726562 275.445312 96.511719 273.398438 97.363281 272.140625 C 98.183594 270.972656 99.125 270.34375 99.914062 270.40625 Z M 99.914062 270.40625 "/>
<path fill-rule="nonzero" fill="rgb(50.196078%, 50.196078%, 50.196078%)" fill-opacity="1" d="M 110.800781 279.800781 L 110.613281 279.738281 C 110.078125 280.589844 109.855469 280.714844 109.195312 280.714844 L 105.636719 280.714844 L 108.15625 278.101562 C 109.480469 276.714844 110.046875 275.582031 110.046875 274.417969 C 110.046875 272.9375 108.851562 271.804688 107.308594 271.804688 C 106.488281 271.804688 105.699219 272.117188 105.164062 272.714844 C 104.691406 273.21875 104.472656 273.691406 104.222656 274.761719 L 104.535156 274.824219 C 105.101562 273.378906 105.636719 272.90625 106.675781 272.90625 C 107.9375 272.90625 108.785156 273.753906 108.785156 274.984375 C 108.785156 276.148438 108.09375 277.535156 106.835938 278.855469 L 104.1875 281.660156 L 104.1875 281.847656 L 109.984375 281.847656 Z M 110.800781 279.800781 "/>
<path fill-rule="nonzero" fill="rgb(50.196078%, 50.196078%, 50.196078%)" fill-opacity="1" d="M 149.640625 276.496094 C 149.328125 276.777344 149.230469 276.90625 149.074219 277.0625 C 148.476562 277.660156 148.222656 277.882812 148.035156 277.882812 C 147.878906 277.882812 147.75 277.753906 147.75 277.628906 C 147.75 277.21875 148.601562 273.789062 149.546875 270.324219 C 149.609375 270.136719 149.609375 270.070312 149.671875 269.914062 L 149.515625 269.851562 L 148.289062 269.976562 L 148.222656 270.039062 L 148.003906 271.015625 C 147.847656 270.261719 147.28125 269.851562 146.398438 269.851562 C 143.753906 269.851562 140.667969 273.503906 140.667969 276.683594 C 140.667969 278.101562 141.421875 278.921875 142.714844 278.921875 C 144.128906 278.921875 144.980469 278.257812 146.746094 275.773438 C 146.335938 277.347656 146.273438 277.597656 146.273438 278.070312 C 146.273438 278.667969 146.523438 278.890625 147.089844 278.890625 C 147.910156 278.890625 148.382812 278.511719 149.894531 276.683594 Z M 146.523438 270.292969 C 147.214844 270.324219 147.65625 270.796875 147.65625 271.519531 C 147.65625 273.191406 146.648438 275.550781 145.265625 277.0625 C 144.792969 277.597656 144.097656 277.945312 143.5 277.945312 C 142.808594 277.945312 142.335938 277.347656 142.335938 276.433594 C 142.335938 275.332031 143.121094 273.285156 143.972656 272.023438 C 144.792969 270.859375 145.738281 270.230469 146.523438 270.292969 Z M 146.523438 270.292969 "/>
<path fill-rule="nonzero" fill="rgb(50.196078%, 50.196078%, 50.196078%)" fill-opacity="1" d="M 152.625 276.820312 C 153.507812 276.820312 153.855469 276.851562 154.199219 276.976562 C 155.144531 277.324219 155.710938 278.175781 155.710938 279.183594 C 155.710938 280.441406 154.863281 281.417969 153.757812 281.417969 C 153.351562 281.417969 153.066406 281.292969 152.5 280.945312 C 152.058594 280.664062 151.808594 280.566406 151.554688 280.566406 C 151.207031 280.566406 150.988281 280.789062 150.988281 281.101562 C 150.988281 281.605469 151.648438 281.953125 152.6875 281.953125 C 153.824219 281.953125 154.988281 281.542969 155.679688 280.945312 C 156.40625 280.347656 156.78125 279.464844 156.78125 278.488281 C 156.78125 277.734375 156.53125 277.011719 156.121094 276.570312 C 155.804688 276.222656 155.523438 276.066406 154.863281 275.78125 C 155.902344 275.089844 156.277344 274.523438 156.277344 273.734375 C 156.277344 272.507812 155.335938 271.6875 153.949219 271.6875 C 153.222656 271.6875 152.5625 271.941406 152.027344 272.414062 C 151.585938 272.820312 151.367188 273.199219 151.019531 274.082031 L 151.242188 274.144531 C 151.871094 273.074219 152.53125 272.570312 153.476562 272.570312 C 154.421875 272.570312 155.113281 273.230469 155.113281 274.175781 C 155.113281 274.710938 154.863281 275.246094 154.515625 275.625 C 154.074219 276.066406 153.632812 276.285156 152.625 276.632812 Z M 152.625 276.820312 "/>
<path fill-rule="nonzero" fill="rgb(50.196078%, 50.196078%, 50.196078%)" fill-opacity="1" d="M 196.25 276.609375 C 195.9375 276.894531 195.84375 277.019531 195.683594 277.175781 C 195.085938 277.777344 194.835938 277.996094 194.644531 277.996094 C 194.488281 277.996094 194.363281 277.871094 194.363281 277.746094 C 194.363281 277.335938 195.210938 273.902344 196.15625 270.4375 C 196.21875 270.25 196.21875 270.1875 196.28125 270.03125 L 196.125 269.964844 L 194.898438 270.09375 L 194.835938 270.15625 L 194.613281 271.132812 C 194.457031 270.375 193.890625 269.964844 193.007812 269.964844 C 190.363281 269.964844 187.277344 273.621094 187.277344 276.800781 C 187.277344 278.214844 188.03125 279.035156 189.324219 279.035156 C 190.742188 279.035156 191.589844 278.375 193.355469 275.886719 C 192.945312 277.460938 192.882812 277.710938 192.882812 278.183594 C 192.882812 278.785156 193.132812 279.003906 193.699219 279.003906 C 194.519531 279.003906 194.992188 278.625 196.503906 276.800781 Z M 193.132812 270.40625 C 193.828125 270.4375 194.269531 270.910156 194.269531 271.636719 C 194.269531 273.304688 193.261719 275.667969 191.875 277.175781 C 191.402344 277.710938 190.710938 278.058594 190.109375 278.058594 C 189.417969 278.058594 188.945312 277.460938 188.945312 276.546875 C 188.945312 275.445312 189.734375 273.398438 190.582031 272.140625 C 191.402344 270.972656 192.347656 270.34375 193.132812 270.40625 Z M 193.132812 270.40625 "/>
<path fill-rule="nonzero" fill="rgb(50.196078%, 50.196078%, 50.196078%)" fill-opacity="1" d="M 203.992188 278.414062 L 202.480469 278.414062 L 202.480469 271.804688 L 201.816406 271.804688 L 197.15625 278.414062 L 197.15625 279.359375 L 201.316406 279.359375 L 201.316406 281.847656 L 202.480469 281.847656 L 202.480469 279.359375 L 203.992188 279.359375 Z M 201.316406 278.414062 L 197.757812 278.414062 L 201.316406 273.3125 Z M 201.316406 278.414062 "/>
<path fill-rule="nonzero" fill="rgb(50.196078%, 50.196078%, 50.196078%)" fill-opacity="1" d="M 242.863281 276.390625 C 242.546875 276.675781 242.453125 276.800781 242.296875 276.957031 C 241.695312 277.554688 241.445312 277.777344 241.253906 277.777344 C 241.097656 277.777344 240.972656 277.652344 240.972656 277.523438 C 240.972656 277.117188 241.824219 273.683594 242.765625 270.21875 C 242.832031 270.03125 242.832031 269.96875 242.894531 269.808594 L 242.734375 269.746094 L 241.507812 269.871094 L 241.445312 269.9375 L 241.222656 270.910156 C 241.066406 270.15625 240.5 269.746094 239.617188 269.746094 C 236.972656 269.746094 233.886719 273.398438 233.886719 276.578125 C 233.886719 277.996094 234.644531 278.816406 235.933594 278.816406 C 237.351562 278.816406 238.203125 278.15625 239.964844 275.667969 C 239.554688 277.242188 239.492188 277.492188 239.492188 277.964844 C 239.492188 278.5625 239.746094 278.785156 240.3125 278.785156 C 241.128906 278.785156 241.601562 278.40625 243.113281 276.578125 Z M 239.746094 270.1875 C 240.4375 270.21875 240.878906 270.691406 240.878906 271.414062 C 240.878906 273.085938 239.871094 275.445312 238.484375 276.957031 C 238.011719 277.492188 237.320312 277.839844 236.722656 277.839844 C 236.027344 277.839844 235.554688 277.242188 235.554688 276.328125 C 235.554688 275.226562 236.34375 273.179688 237.195312 271.917969 C 238.011719 270.753906 238.957031 270.125 239.746094 270.1875 Z M 239.746094 270.1875 "/>
<path fill-rule="nonzero" fill="rgb(50.196078%, 50.196078%, 50.196078%)" fill-opacity="1" d="M 246.253906 273.175781 L 249.183594 273.175781 C 249.40625 273.175781 249.46875 273.144531 249.53125 273.050781 L 250.097656 271.726562 L 249.941406 271.601562 C 249.71875 271.917969 249.59375 272.011719 249.277344 272.011719 L 246.160156 272.011719 L 244.554688 275.507812 C 244.523438 275.539062 244.523438 275.570312 244.523438 275.601562 C 244.523438 275.664062 244.585938 275.726562 244.710938 275.726562 C 245.183594 275.726562 245.785156 275.820312 246.382812 276.011719 C 248.082031 276.546875 248.902344 277.492188 248.902344 278.9375 C 248.902344 280.386719 247.988281 281.488281 246.824219 281.488281 C 246.507812 281.488281 246.253906 281.394531 245.816406 281.046875 C 245.34375 280.734375 244.996094 280.578125 244.679688 280.578125 C 244.273438 280.578125 244.050781 280.765625 244.050781 281.113281 C 244.050781 281.679688 244.746094 282.054688 245.878906 282.054688 C 247.105469 282.054688 248.175781 281.648438 248.933594 280.890625 C 249.625 280.230469 249.941406 279.378906 249.941406 278.246094 C 249.941406 277.175781 249.65625 276.484375 248.902344 275.726562 C 248.238281 275.097656 247.390625 274.75 245.65625 274.4375 Z M 246.253906 273.175781 "/>
<path fill-rule="nonzero" fill="rgb(50.196078%, 50.196078%, 50.196078%)" fill-opacity="1" d="M 289.472656 276.390625 C 289.15625 276.675781 289.0625 276.800781 288.90625 276.957031 C 288.308594 277.554688 288.054688 277.777344 287.867188 277.777344 C 287.707031 277.777344 287.582031 277.652344 287.582031 277.523438 C 287.582031 277.117188 288.433594 273.683594 289.378906 270.21875 C 289.441406 270.03125 289.441406 269.96875 289.503906 269.808594 L 289.347656 269.746094 L 288.117188 269.871094 L 288.054688 269.9375 L 287.835938 270.910156 C 287.675781 270.15625 287.109375 269.746094 286.230469 269.746094 C 283.582031 269.746094 280.496094 273.398438 280.496094 276.578125 C 280.496094 277.996094 281.253906 278.816406 282.542969 278.816406 C 283.960938 278.816406 284.8125 278.15625 286.574219 275.667969 C 286.164062 277.242188 286.101562 277.492188 286.101562 277.964844 C 286.101562 278.5625 286.355469 278.785156 286.921875 278.785156 C 287.738281 278.785156 288.210938 278.40625 289.722656 276.578125 Z M 286.355469 270.1875 C 287.046875 270.21875 287.488281 270.691406 287.488281 271.414062 C 287.488281 273.085938 286.480469 275.445312 285.09375 276.957031 C 284.621094 277.492188 283.929688 277.839844 283.332031 277.839844 C 282.640625 277.839844 282.167969 277.242188 282.167969 276.328125 C 282.167969 275.226562 282.953125 273.179688 283.804688 271.917969 C 284.621094 270.753906 285.566406 270.125 286.355469 270.1875 Z M 286.355469 270.1875 "/>
<path fill-rule="nonzero" fill="rgb(50.196078%, 50.196078%, 50.196078%)" fill-opacity="1" d="M 296.832031 271.664062 C 295.132812 271.824219 294.25 272.105469 293.179688 272.863281 C 291.574219 273.996094 290.691406 275.695312 290.691406 277.679688 C 290.691406 278.96875 291.101562 280.292969 291.734375 281.046875 C 292.300781 281.679688 293.117188 282.054688 294.03125 282.054688 C 295.859375 282.054688 297.148438 280.640625 297.148438 278.59375 C 297.148438 276.671875 296.046875 275.476562 294.347656 275.476562 C 293.683594 275.476562 293.371094 275.570312 292.457031 276.136719 C 292.835938 273.902344 294.503906 272.292969 296.832031 271.917969 Z M 293.777344 276.167969 C 295.070312 276.167969 295.792969 277.238281 295.792969 279.097656 C 295.792969 280.734375 295.226562 281.617188 294.1875 281.617188 C 292.867188 281.617188 292.078125 280.230469 292.078125 277.929688 C 292.078125 277.175781 292.203125 276.765625 292.488281 276.515625 C 292.804688 276.292969 293.277344 276.167969 293.777344 276.167969 Z M 293.777344 276.167969 "/>
<path fill-rule="nonzero" fill="rgb(50.196078%, 50.196078%, 50.196078%)" fill-opacity="1" d="M 328.152344 275.320312 C 328.152344 274.75 327.679688 274.277344 327.109375 274.277344 C 326.511719 274.277344 326.039062 274.75 326.039062 275.320312 C 326.039062 275.917969 326.511719 276.390625 327.109375 276.390625 C 327.679688 276.390625 328.152344 275.917969 328.152344 275.320312 Z M 328.152344 275.320312 "/>
<path fill-rule="nonzero" fill="rgb(50.196078%, 50.196078%, 50.196078%)" fill-opacity="1" d="M 335.9375 275.320312 C 335.9375 274.75 335.464844 274.277344 334.898438 274.277344 C 334.300781 274.277344 333.828125 274.75 333.828125 275.320312 C 333.828125 275.917969 334.300781 276.390625 334.898438 276.390625 C 335.464844 276.390625 335.9375 275.917969 335.9375 275.320312 Z M 335.9375 275.320312 "/>
<path fill-rule="nonzero" fill="rgb(50.196078%, 50.196078%, 50.196078%)" fill-opacity="1" d="M 343.742188 275.320312 C 343.742188 274.75 343.269531 274.277344 342.703125 274.277344 C 342.105469 274.277344 341.632812 274.75 341.632812 275.320312 C 341.632812 275.917969 342.105469 276.390625 342.703125 276.390625 C 343.269531 276.390625 343.742188 275.917969 343.742188 275.320312 Z M 343.742188 275.320312 "/>
<path fill-rule="nonzero" fill="rgb(6.666667%, 52.941176%, 87.058824%)" fill-opacity="1" d="M 232.449219 118.925781 C 233.300781 119.964844 234.339844 120.59375 235.285156 120.59375 C 236.511719 120.59375 237.363281 119.679688 237.363281 118.324219 C 237.363281 117.035156 236.480469 116.152344 235.1875 116.152344 C 234.214844 116.152344 233.238281 116.71875 232.449219 117.789062 C 231.601562 116.71875 230.59375 116.152344 229.679688 116.152344 C 228.417969 116.152344 227.507812 117.066406 227.507812 118.390625 C 227.507812 119.679688 228.386719 120.59375 229.617188 120.59375 C 230.464844 120.59375 231.316406 120.183594 231.976562 119.429688 Z M 232.953125 118.355469 C 233.582031 117.476562 234.464844 116.910156 235.253906 116.910156 C 236.039062 116.910156 236.605469 117.507812 236.605469 118.355469 C 236.605469 119.238281 236.101562 119.804688 235.285156 119.804688 C 234.496094 119.804688 233.992188 119.492188 232.953125 118.355469 Z M 231.945312 118.324219 C 231.222656 119.269531 230.308594 119.804688 229.554688 119.804688 C 228.765625 119.804688 228.261719 119.207031 228.261719 118.324219 C 228.261719 117.507812 228.796875 116.910156 229.617188 116.910156 C 230.308594 116.910156 231 117.285156 231.851562 118.230469 C 231.914062 118.292969 231.914062 118.292969 231.945312 118.324219 Z M 231.945312 118.324219 "/>
<path fill-rule="nonzero" fill="rgb(6.666667%, 52.941176%, 87.058824%)" fill-opacity="1" d="M 227.226562 127.46875 L 234.972656 127.46875 C 238.28125 127.46875 239.160156 128.132812 239.632812 131.058594 L 240.390625 131.058594 L 240.105469 126.304688 L 222.789062 126.304688 L 229.527344 139.78125 L 222.535156 151.589844 L 240.640625 151.589844 L 242.214844 145.515625 L 241.460938 145.515625 C 240.546875 147.84375 239.664062 148.347656 236.328125 148.347656 L 226.847656 148.347656 L 232.644531 138.175781 Z M 227.226562 127.46875 "/>
<path fill-rule="nonzero" fill="rgb(6.666667%, 52.941176%, 87.058824%)" fill-opacity="1" d="M 226.058594 162.707031 L 225.742188 163.082031 C 225.332031 163.652344 225.050781 163.871094 224.828125 163.871094 C 224.734375 163.871094 224.609375 163.746094 224.609375 163.652344 C 224.609375 163.523438 224.609375 163.523438 224.796875 162.707031 L 225.648438 159.652344 C 225.742188 159.335938 225.804688 158.988281 225.804688 158.800781 C 225.804688 158.265625 225.394531 157.886719 224.796875 157.886719 C 223.851562 157.886719 222.941406 158.769531 221.398438 161.164062 L 222.40625 157.917969 L 222.339844 157.886719 C 221.554688 158.046875 221.238281 158.109375 219.949219 158.328125 L 219.949219 158.582031 C 220.703125 158.613281 220.894531 158.675781 220.894531 158.988281 C 220.894531 159.085938 220.863281 159.148438 220.863281 159.242188 L 219.445312 164.4375 L 220.546875 164.4375 C 221.238281 162.074219 221.367188 161.761719 222.027344 160.753906 C 222.941406 159.398438 223.695312 158.644531 224.230469 158.644531 C 224.453125 158.644531 224.578125 158.800781 224.578125 159.085938 C 224.578125 159.242188 224.515625 159.746094 224.386719 160.1875 L 223.726562 162.644531 C 223.539062 163.398438 223.476562 163.617188 223.476562 163.777344 C 223.476562 164.34375 223.695312 164.5625 224.199219 164.5625 C 224.859375 164.5625 225.238281 164.25 226.277344 162.894531 Z M 226.058594 162.707031 "/>
<path fill-rule="nonzero" fill="rgb(6.666667%, 52.941176%, 87.058824%)" fill-opacity="1" d="M 236.855469 159.589844 C 237.074219 159.589844 237.359375 159.589844 237.359375 159.273438 C 237.359375 158.988281 237.074219 158.988281 236.886719 158.988281 L 227.976562 158.988281 C 227.753906 158.988281 227.472656 158.988281 227.472656 159.273438 C 227.472656 159.589844 227.753906 159.589844 227.976562 159.589844 Z M 236.886719 162.453125 C 237.074219 162.453125 237.359375 162.453125 237.359375 162.171875 C 237.359375 161.855469 237.074219 161.855469 236.855469 161.855469 L 227.976562 161.855469 C 227.753906 161.855469 227.472656 161.855469 227.472656 162.171875 C 227.472656 162.453125 227.753906 162.453125 227.976562 162.453125 Z M 236.886719 162.453125 "/>
<path fill-rule="nonzero" fill="rgb(6.666667%, 52.941176%, 87.058824%)" fill-opacity="1" d="M 245.25 162.390625 L 245.0625 162.328125 C 244.527344 163.179688 244.308594 163.304688 243.644531 163.304688 L 240.085938 163.304688 L 242.605469 160.691406 C 243.929688 159.304688 244.496094 158.171875 244.496094 157.007812 C 244.496094 155.527344 243.300781 154.394531 241.757812 154.394531 C 240.9375 154.394531 240.152344 154.707031 239.617188 155.304688 C 239.144531 155.808594 238.921875 156.28125 238.671875 157.351562 L 238.984375 157.414062 C 239.550781 155.96875 240.085938 155.496094 241.125 155.496094 C 242.386719 155.496094 243.238281 156.34375 243.238281 157.574219 C 243.238281 158.738281 242.542969 160.125 241.285156 161.445312 L 238.640625 164.25 L 238.640625 164.4375 L 244.433594 164.4375 Z M 245.25 162.390625 "/>
<path fill-rule="nonzero" fill="rgb(6.666667%, 52.941176%, 87.058824%)" fill-opacity="1" d="M 257.179688 141.542969 C 256.863281 141.824219 256.769531 141.953125 256.613281 142.109375 C 256.011719 142.707031 255.761719 142.929688 255.574219 142.929688 C 255.414062 142.929688 255.289062 142.800781 255.289062 142.675781 C 255.289062 142.265625 256.140625 138.835938 257.085938 135.371094 C 257.148438 135.179688 257.148438 135.117188 257.210938 134.960938 L 257.050781 134.898438 L 255.824219 135.023438 L 255.761719 135.085938 L 255.542969 136.0625 C 255.382812 135.308594 254.816406 134.898438 253.933594 134.898438 C 251.289062 134.898438 248.203125 138.550781 248.203125 141.730469 C 248.203125 143.148438 248.960938 143.96875 250.25 143.96875 C 251.667969 143.96875 252.519531 143.304688 254.28125 140.816406 C 253.871094 142.390625 253.808594 142.644531 253.808594 143.117188 C 253.808594 143.714844 254.0625 143.933594 254.628906 143.933594 C 255.445312 143.933594 255.917969 143.558594 257.429688 141.730469 Z M 254.0625 135.339844 C 254.753906 135.371094 255.195312 135.84375 255.195312 136.566406 C 255.195312 138.234375 254.1875 140.597656 252.800781 142.109375 C 252.328125 142.644531 251.636719 142.992188 251.039062 142.992188 C 250.34375 142.992188 249.871094 142.390625 249.871094 141.480469 C 249.871094 140.378906 250.660156 138.332031 251.511719 137.070312 C 252.328125 135.90625 253.273438 135.277344 254.0625 135.339844 Z M 254.0625 135.339844 "/>
<path fill-rule="nonzero" fill="rgb(6.666667%, 52.941176%, 87.058824%)" fill-opacity="1" d="M 264.730469 145.027344 L 264.414062 145.402344 C 264.003906 145.96875 263.722656 146.191406 263.5 146.191406 C 263.40625 146.191406 263.28125 146.066406 263.28125 145.96875 C 263.28125 145.84375 263.28125 145.84375 263.46875 145.027344 L 264.320312 141.972656 C 264.414062 141.65625 264.476562 141.308594 264.476562 141.121094 C 264.476562 140.585938 264.066406 140.207031 263.46875 140.207031 C 262.523438 140.207031 261.613281 141.089844 260.070312 143.484375 L 261.078125 140.238281 L 261.011719 140.207031 C 260.226562 140.363281 259.910156 140.429688 258.621094 140.648438 L 258.621094 140.898438 C 259.375 140.933594 259.566406 140.996094 259.566406 141.308594 C 259.566406 141.402344 259.535156 141.46875 259.535156 141.5625 L 258.117188 146.757812 L 259.21875 146.757812 C 259.910156 144.394531 260.039062 144.082031 260.699219 143.074219 C 261.613281 141.71875 262.367188 140.964844 262.902344 140.964844 C 263.125 140.964844 263.25 141.121094 263.25 141.402344 C 263.25 141.5625 263.1875 142.066406 263.058594 142.507812 L 262.398438 144.960938 C 262.210938 145.71875 262.148438 145.9375 262.148438 146.097656 C 262.148438 146.664062 262.367188 146.882812 262.871094 146.882812 C 263.53125 146.882812 263.910156 146.570312 264.949219 145.214844 Z M 264.730469 145.027344 "/>
<path fill-rule="nonzero" fill="rgb(50.196078%, 50.196078%, 50.196078%)" fill-opacity="1" d="M 383.925781 289.003906 C 383.765625 289.195312 383.671875 289.320312 383.484375 289.542969 C 383.042969 290.171875 382.789062 290.359375 382.570312 290.359375 C 382.285156 290.359375 382.097656 290.109375 381.941406 289.542969 C 381.910156 289.382812 381.878906 289.257812 381.878906 289.195312 C 381.375 287.148438 381.152344 286.234375 381.152344 285.953125 C 382.035156 284.375 382.757812 283.496094 383.105469 283.496094 C 383.230469 283.496094 383.386719 283.558594 383.609375 283.652344 C 383.828125 283.808594 383.988281 283.839844 384.144531 283.839844 C 384.554688 283.839844 384.835938 283.558594 384.835938 283.117188 C 384.835938 282.707031 384.492188 282.394531 384.019531 282.394531 C 383.136719 282.394531 382.382812 283.117188 380.996094 285.257812 L 380.773438 284.15625 C 380.492188 282.769531 380.269531 282.394531 379.703125 282.394531 C 379.261719 282.394531 378.601562 282.550781 377.375 282.960938 L 377.152344 283.054688 L 377.214844 283.335938 C 378.003906 283.179688 378.160156 283.117188 378.351562 283.117188 C 378.855469 283.117188 378.980469 283.304688 379.261719 284.503906 L 379.832031 286.992188 L 378.191406 289.320312 C 377.785156 289.949219 377.375 290.296875 377.152344 290.296875 C 377.058594 290.296875 376.839844 290.234375 376.648438 290.109375 C 376.398438 289.980469 376.175781 289.917969 375.988281 289.917969 C 375.609375 289.917969 375.328125 290.203125 375.328125 290.613281 C 375.328125 291.148438 375.738281 291.460938 376.335938 291.460938 C 376.933594 291.460938 377.183594 291.273438 378.191406 290.042969 C 378.726562 289.414062 379.167969 288.878906 379.988281 287.714844 L 380.617188 290.109375 C 380.871094 291.148438 381.121094 291.460938 381.78125 291.460938 C 382.539062 291.460938 383.042969 290.988281 384.207031 289.164062 Z M 383.925781 289.003906 "/>
<path fill-rule="nonzero" fill="rgb(50.196078%, 50.196078%, 50.196078%)" fill-opacity="1" d="M 40.441406 8.191406 C 40.691406 8.125 40.816406 8.09375 41.039062 8.09375 C 42.203125 8.09375 42.488281 8.597656 43.429688 12.0625 C 43.746094 13.355469 44.25 15.714844 44.25 16.0625 C 44.25 16.375 44.125 16.691406 43.808594 17.070312 C 43.210938 17.886719 42.800781 18.421875 42.582031 18.644531 C 42.140625 19.085938 41.917969 19.242188 41.636719 19.242188 C 41.542969 19.242188 41.382812 19.179688 41.164062 19.023438 C 40.878906 18.800781 40.660156 18.675781 40.441406 18.675781 C 40 18.675781 39.652344 19.023438 39.652344 19.460938 C 39.652344 19.964844 40.09375 20.34375 40.660156 20.34375 C 41.953125 20.34375 44.597656 17.351562 46.769531 13.355469 C 48.125 10.898438 48.691406 9.449219 48.691406 8.472656 C 48.691406 7.875 48.1875 7.371094 47.589844 7.371094 C 47.117188 7.371094 46.800781 7.652344 46.800781 8.09375 C 46.800781 8.410156 46.957031 8.628906 47.367188 8.882812 C 47.746094 9.101562 47.871094 9.292969 47.871094 9.574219 C 47.871094 10.363281 47.148438 11.9375 45.414062 14.769531 L 45.039062 12.441406 C 44.722656 10.675781 43.589844 7.371094 43.304688 7.371094 L 43.210938 7.371094 C 43.210938 7.371094 43.117188 7.371094 43.054688 7.371094 C 42.863281 7.402344 42.140625 7.527344 41.070312 7.71875 C 40.976562 7.75 40.722656 7.8125 40.441406 7.84375 Z M 40.441406 8.191406 "/>
</svg>
